# xmcd
#
# Track frame offsets:
#   150
#   13414
#   24177
#   33988
#   45601
#   59744
#   73983
#   84632
#   98386
#   110866
#   123959
#   135892
#   149562
#   161294
#   173138
#   187807
#   199543
#   213635
#   224459
#   234697
#   243973
#   256747
#   268993
#   281536
#   293914
#   305481
#   318885
#
# Disc length: 4409 seconds
#
# Revision: 0
# Processed by: cddbd v1.4PL0 Copyright (c) Steve Scherf et al.
# Submitted via: uFREEDB 1.6.0
#
DISCID=8f11371b
DTITLE=Martin, Dean - Tracks 1953-54
DYEAR=1900
DGENRE=Vocal
TTITLE0='Til I Find You
TTITLE1=Don't You Remember
TTITLE2=If I Could Sing Like Bing
TTITLE3=Love Me, Love Me
TTITLE4=That's Amore
TTITLE5=You're The Right One
TTITLE6=I'd Cry Like A Baby
TTITLE7=Where Can I Go Without You
TTITLE8=If I Should Love Again
TTITLE9=The Christmas Blues
TTITLE10=Hey, Brother, Pour The Wine
TTITLE11=Money Burns A Hole In My Pocket
TTITLE12=Moments Like This
TTITLE13=That's What I Like
TTITLE14=I Want You
TTITLE15=I'd Cry Like A Baby
TTITLE16=How Do You Speak To An Angel
TTITLE17=Every Street's A Boulevard In Old New York (with J
TTITLE18=Money Burns A Hole In My Pocket
TTITLE19=That's What I Like
TTITLE20=Belle From Barcelona
TTITLE21=Sway
TTITLE22=Under The Bridges Of Paris
TTITLE23=The Peddlar Man (Ten I Loved)
TTITLE24=I Never Had A Chance
TTITLE25=Confused
TTITLE26=One More Time
EXTD=
EXTT0=
EXTT1=
EXTT2=
EXTT3=
EXTT4=
EXTT5=
EXTT6=
EXTT7=
EXTT8=
EXTT9=
EXTT10=
EXTT11=
EXTT12=
EXTT13=
EXTT14=
EXTT15=
EXTT16=
EXTT17=
EXTT18=
EXTT19=
EXTT20=
EXTT21=
EXTT22=
EXTT23=
EXTT24=
EXTT25=
EXTT26=
PLAYORDER=
